<svg xmlns="http://www.w3.org/2000/svg" viewBox="0 0 1200 720">
  <rect width="1200" height="720" fill="#f4f7ff" />
  <rect x="90" y="90" width="1020" height="540" rx="28" fill="#fff" stroke="#153585" stroke-opacity=".2" stroke-width="3" />
  <rect x="160" y="160" width="280" height="400" rx="20" fill="#153585" fill-opacity=".08" />
  <rect x="500" y="160" width="540" height="96" rx="16" fill="#153585" />
  <rect x="530" y="192" width="200" height="12" rx="6" fill="#dfe8ff" />
  <rect x="530" y="218" width="360" height="10" rx="5" fill="#c6d7ff" />
  <rect x="500" y="286" width="540" height="96" rx="16" fill="#153585" fill-opacity=".88" />
  <rect x="530" y="318" width="200" height="12" rx="6" fill="#dfe8ff" />
  <rect x="530" y="344" width="360" height="10" rx="5" fill="#c6d7ff" />
  <rect x="500" y="412" width="540" height="96" rx="16" fill="#153585" fill-opacity=".76" />
  <rect x="530" y="444" width="200" height="12" rx="6" fill="#dfe8ff" />
  <rect x="530" y="470" width="360" height="10" rx="5" fill="#c6d7ff" />
  <text x="180" y="220" fill="#153585" font-family="Arial, sans-serif" font-size="36" font-weight="700">3-Step</text>
  <text x="180" y="265" fill="#153585" font-family="Arial, sans-serif" font-size="30" font-weight="700">Delivery</text>
  <text x="180" y="310" fill="#153585" font-family="Arial, sans-serif" font-size="30" font-weight="700">Framework</text>
</svg>
